<svg id="wave" style="transform:rotate(180deg)" viewBox="0 0 1440 490"><defs><linearGradient id="sw-gradient-0" x1="0" x2="0" y1="1" y2="0"><stop stop-color="rgba(254, 111, 109, 1)" offset="0%"></stop><stop stop-color="rgba(254, 111, 109, 1)" offset="100%"></stop></linearGradient></defs><path style="transform:translate(0, 0px); opacity:1" fill="url(#sw-gradient-0)" d="M0,245L60,220.5C120,196,240,147,360,171.5C480,196,600,294,720,334.8C840,376,960,359,1080,310.3C1200,261,1320,180,1440,130.7C1560,82,1680,65,1800,73.5C1920,82,2040,114,2160,155.2C2280,196,2400,245,2520,269.5C2640,294,2760,294,2880,277.7C3000,261,3120,229,3240,187.8C3360,147,3480,98,3600,114.3C3720,131,3840,212,3960,228.7C4080,245,4200,196,4320,147C4440,98,4560,49,4680,81.7C4800,114,4920,229,5040,294C5160,359,5280,376,5400,367.5C5520,359,5640,327,5760,334.8C5880,343,6000,392,6120,359.3C6240,327,6360,212,6480,212.3C6600,212,6720,327,6840,318.5C6960,310,7080,180,7200,106.2C7320,33,7440,16,7560,65.3C7680,114,7800,229,7920,269.5C8040,310,8160,278,8280,285.8C8400,294,8520,343,8580,367.5L8640,392L8640,490L8580,490C8520,490,8400,490,8280,490C8160,490,8040,490,7920,490C7800,490,7680,490,7560,490C7440,490,7320,490,7200,490C7080,490,6960,490,6840,490C6720,490,6600,490,6480,490C6360,490,6240,490,6120,490C6000,490,5880,490,5760,490C5640,490,5520,490,5400,490C5280,490,5160,490,5040,490C4920,490,4800,490,4680,490C4560,490,4440,490,4320,490C4200,490,4080,490,3960,490C3840,490,3720,490,3600,490C3480,490,3360,490,3240,490C3120,490,3000,490,2880,490C2760,490,2640,490,2520,490C2400,490,2280,490,2160,490C2040,490,1920,490,1800,490C1680,490,1560,490,1440,490C1320,490,1200,490,1080,490C960,490,840,490,720,490C600,490,480,490,360,490C240,490,120,490,60,490L0,490Z"></path></svg>